Coordinates
version=1
nRows=14
nColumns=40
inDegrees=yes

Units are S.I. units (second, meters, Newtons, ...)
Angles are in degrees.

endheader
time	pelvis_tilt	pelvis_list	pelvis_rotation	pelvis_tx	pelvis_ty	pelvis_tz	hip_flexion_r	hip_adduction_r	hip_rotation_r	knee_angle_r	knee_angle_r_beta	ankle_angle_r	subtalar_angle_r	mtp_angle_r	hip_flexion_l	hip_adduction_l	hip_rotation_l	knee_angle_l	knee_angle_l_beta	ankle_angle_l	subtalar_angle_l	mtp_angle_l	lumbar_extension	lumbar_bending	lumbar_rotation	arm_flex_r	arm_add_r	arm_rot_r	elbow_flex_r	pro_sup_r	wrist_flex_r	wrist_dev_r	arm_flex_l	arm_add_l	arm_rot_l	elbow_flex_l	pro_sup_l	wrist_flex_l	wrist_dev_l
     48.18900000	     -5.22256524	     -7.15376505	      3.43043302	      0.92013193	      0.93126566	      0.51614301	      8.59713269	      7.03484617	    -17.67445454	     12.21491994	     12.21491994	     10.69170131	      5.14042022	     -1.59938521	     43.27180043	    -13.11184539	      5.53004861	     64.03789976	     64.03789976	      4.78231591	    -17.82846067	      9.45850037	    -11.75027392	      6.39078297	      4.01432885	     28.53484378	    -17.00061143	      0.62798001	     52.58875548	     45.43992652	      0.00000000	      0.00000000	     -2.32916133	     -7.85454690	      0.39051281	     31.34688382	     46.93727191	      0.00000000	      0.00000000
     48.20050000	     -5.48464563	     -7.29895956	      3.24070019	      0.91894032	      0.93081064	      0.51628900	      8.19670292	      7.25732956	    -17.61048432	     11.85833033	     11.85833033	     10.86769682	      5.54354481	     -1.71642085	     44.01908831	    -13.22423433	      5.18493559	     61.40610780	     61.40610780	      4.91630024	    -17.62365137	      9.81170223	    -11.52604485	      6.47650901	      4.68096763	     30.36801041	    -17.53373480	      0.50408942	     53.48856467	     45.42328772	      0.00000000	      0.00000000	     -3.61591555	     -7.63293469	      0.49813167	     30.70995842	     46.89739587	      0.00000000	      0.00000000
     48.21200000	     -5.46811387	     -7.39148901	      3.12973056	      0.91817195	      0.93083773	      0.51619896	      6.90736088	      7.55826058	    -17.87205050	     10.41614790	     10.41614790	     10.82740417	      6.98255993	     -1.80247639	     44.20503338	    -13.21788897	      4.92210758	     58.43626299	     58.43626299	      5.08419516	    -17.34766080	     10.19066270	    -11.64394826	      6.57377349	      4.25670065	     32.44018336	    -17.08182411	      0.94572389	     55.91009665	     45.33012257	      0.00000000	      0.00000000	     -5.18702072	     -7.51853804	      0.95904722	     29.48543657	     46.79016665	      0.00000000	      0.00000000
     48.22350000	     -5.58995023	     -7.60061803	      3.00211573	      0.91731034	      0.93024993	      0.51591547	      6.05808496	      7.83647596	    -18.48473989	      9.54523936	      9.54523936	     10.77486737	      8.64959263	     -2.56079699	     44.43261251	    -13.28530011	      4.77103683	     55.27035452	     55.27035452	      5.14273183	    -16.88801607	      9.92186162	    -11.61621616	      6.83158012	      4.77073422	     33.46521465	    -18.34871550	      2.86722097	     59.90060619	     45.13057658	      0.00000000	      0.00000000	     -6.48768030	     -7.54133605	      2.76920841	     28.99104488	     46.42247803	      0.00000000	      0.00000000
     48.23500000	     -5.87103038	     -7.67209649	      2.73823144	      0.91636853	      0.92939822	      0.51572906	      5.50022583	      8.01443817	    -18.31235068	      8.88885151	      8.88885151	     10.98368811	      9.13278271	     -2.57315461	     44.56214896	    -13.28684049	      4.45983824	     51.84779848	     51.84779848	      5.44474773	    -16.23943865	     10.19525088	    -11.38148552	      6.83173932	      5.05477173	     35.45142274	    -18.39430147	      2.69603606	     61.16489554	     45.10509285	      0.00000000	      0.00000000	     -7.86893415	     -7.31747521	      3.05162116	     28.56648270	     46.34765948	      0.00000000	      0.00000000
     48.24650000	     -5.86530254	     -7.87938390	      2.62231631	      0.91587486	      0.92876598	      0.51528009	      4.43468077	      8.37053623	    -18.42827970	      7.90094772	      7.90094772	     11.11876178	     10.16835287	     -2.49920670	     44.23517487	    -13.33212655	      4.37607798	     48.22979350	     48.22979350	      5.70085789	    -15.38470790	     10.31990870	    -11.40919465	      7.10779823	      4.81539152	     37.14888117	    -17.91120866	      2.89812976	     63.27722978	     45.03698042	      0.00000000	      0.00000000	     -9.57480632	     -7.25097652	      3.61533370	     28.36599768	     46.21405218	      0.00000000	      0.00000000
     48.25800000	     -6.00784782	     -8.08765079	      2.41274380	      0.91537829	      0.92761523	      0.51476172	      3.69413710	      8.64126906	    -18.61662982	      7.28185412	      7.28185412	     11.60850531	     11.29733121	     -1.98368489	     43.85778281	    -13.42072918	      4.21098370	     44.42927222	     44.42927222	      5.46886843	    -14.58333443	      9.09855385	    -11.29454863	      7.38175365	      5.41049031	     38.21745246	    -18.66849656	      3.62533433	     66.53045463	     44.99300545	      0.00000000	      0.00000000	    -11.63800685	     -8.40374385	     10.58531558	     30.65368531	     45.05048343	      0.00000000	      0.00000000
     48.26950000	     -6.19277020	     -8.17633053	      2.13312916	      0.91496848	      0.92631444	      0.51413721	      3.10975638	      8.76299101	    -18.39908566	      6.88395151	      6.88395151	     11.97004865	     11.74762513	     -2.09384106	     43.34930513	    -13.41711087	      3.90591929	     40.65053109	     40.65053109	      5.82335621	    -13.56814720	      9.65398158	    -11.06597979	      7.47671257	      5.63424661	     39.89586187	    -18.51423602	      3.56538643	     67.80739180	     44.96269610	      0.00000000	      0.00000000	    -12.97096707	     -8.17153267	     10.72188620	     30.42093142	     45.01317473	      0.00000000	      0.00000000
     48.28100000	     -6.23505542	     -8.38871355	      1.88009092	      0.91493115	      0.92493494	      0.51341161	      2.28386258	      9.01862646	    -18.44480872	      6.37108042	      6.37108042	     12.43652832	     12.64403758	     -1.88683454	     42.62934405	    -13.54231085	      3.60013773	     37.04079793	     37.04079793	      6.34004415	    -12.42694329	     10.68270044	    -11.04654731	      7.71282949	      5.64074566	     41.18284532	    -18.57271387	      4.28587433	     70.61322740	     44.87068330	      0.00000000	      0.00000000	    -14.85579295	     -8.16987732	     11.11934462	     31.58663348	     44.94211949	      0.00000000	      0.00000000
     48.29250000	     -6.31608441	     -8.48772767	      1.57929445	      0.91504038	      0.92339405	      0.51250952	      1.62631477	      9.10709595	    -18.14265464	      6.13132245	      6.13132245	     12.93199441	     12.97520363	     -1.98541397	     41.78403898	    -13.55898600	      3.11825183	     33.52530651	     33.52530651	      6.54729834	    -11.47668141	     11.44336459	    -10.87675009	      7.84502191	      5.78157204	     42.66436723	    -18.25106514	      4.33343930	     71.91314821	     44.83672703	      0.00000000	      0.00000000	    -16.20113009	     -7.92869427	     11.33298592	     31.42708102	     44.89665487	      0.00000000	      0.00000000
     48.30400000	     -6.35490420	     -8.67414543	      1.28839821	      0.91536738	      0.92172517	      0.51150419	      0.93262387	      9.26749913	    -17.89553323	      5.94704463	      5.94704463	     13.55791438	     13.38254954	     -1.69436943	     40.93640403	    -13.65605495	      2.54583020	     30.44539065	     30.44539065	      6.90465254	    -10.48636900	     12.85639500	    -10.79467975	      8.06669184	      5.83819058	     43.83020376	    -18.27189261	      5.04614968	     74.41797989	     44.76170083	      0.00000000	      0.00000000	    -17.95387108	     -7.92513756	     11.87090358	     32.71983776	     44.81784823	      0.00000000	      0.00000000
     48.31550000	     -6.38898573	     -8.77438613	      0.96178490	      0.91591661	      0.92004179	      0.51029269	      0.31377221	      9.28387829	    -17.50811344	      5.95013820	      5.95013820	     14.12008517	     13.50604082	     -1.84732487	     39.98701851	    -13.66697825	      1.75492918	     27.65579909	     27.65579909	      6.79651621	     -9.74484359	     13.59098718	    -10.61924329	      8.20048388	      5.93509031	     45.07835911	    -17.91997585	      5.08681060	     75.57414467	     44.73337865	      0.00000000	      0.00000000	    -19.16489505	     -7.65445686	     12.09061016	     32.61092921	     44.77653805	      0.00000000	      0.00000000
     48.32700000	     -6.47861342	     -8.94179894	      0.65205028	      0.91656327	      0.91820277	      0.50892496	     -0.21142510	      9.34737032	    -17.14668133	      6.02242967	      6.02242967	     14.66957564	     13.58220980	     -2.01518711	     39.18205307	    -13.69458812	      0.95266911	     25.39562917	     25.39562917	      6.52861805	     -9.11084868	     14.19874631	    -10.35982382	      8.42071778	      6.04476999	     46.25819785	    -17.64927934	      5.13556012	     76.67991747	     44.70433229	      0.00000000	      0.00000000	    -20.20819328	     -7.32516748	     12.25084538	     32.60971769	     44.74363604	      0.00000000	      0.00000000
     48.33850000	     -6.52338417	     -9.04857340	      0.35560309	      0.91738438	      0.91649761	      0.50736819	     -0.77016900	      9.30925237	    -16.79811892	      6.14496092	      6.14496092	     15.21391980	     13.69453586	     -2.16519738	     38.40247958	    -13.64461781	      0.02899170	     23.71607861	     23.71607861	      6.11581878	     -8.71223457	     14.70890492	    -10.14451064	      8.60538986	      6.07659057	     47.22410552	    -17.34559113	      5.23037775	     77.79209959	     44.67188581	      0.00000000	      0.00000000	    -21.27485902	     -7.04576526	     12.38868705	     32.59979454	     44.71282648	      0.00000000	      0.00000000
